<svg width="16" height="16" viewBox="0 0 16 16" fill="none" xmlns="http://www.w3.org/2000/svg">
<path fill-rule="evenodd" clip-rule="evenodd" d="M3.08234 3.08627C3.42816 2.74045 3.97517 2.70554 4.36124 2.99937L4.37201 3.00757L4.46103 3.08596L7.99687 6.62292L11.533 3.08628C11.8884 2.73094 12.4496 2.70738 12.8324 3.01539L12.8409 3.02219L12.9116 3.08607C13.2587 3.43321 13.291 3.9807 12.9907 4.37457L12.9863 4.38021L12.9117 4.46493L9.37473 8.00078L12.9114 11.537C13.2667 11.8923 13.2903 12.4535 12.9823 12.8364L12.9755 12.8448L12.9116 12.9155C12.5645 13.2627 12.017 13.295 11.6231 12.9946L11.6175 12.9903L11.5328 12.9156L7.99627 9.37864L4.46072 12.9153C4.10538 13.2707 3.54418 13.2942 3.16129 12.9862L3.15285 12.9794L3.08213 12.9155C2.73499 12.5684 2.70269 12.0209 3.00308 11.627L3.00739 11.6214L3.08205 11.5367L6.6184 8.00078L3.08234 4.46464C2.727 4.10929 2.70344 3.54811 3.01145 3.16523L3.01825 3.15679L3.08234 3.08627Z" fill="#4D4D4D"/>
</svg>
