<svg width="21" height="20" viewBox="0 0 21 20" fill="none" xmlns="http://www.w3.org/2000/svg">
<path d="M0.328125 3C0.328125 1.34315 1.67127 0 3.32813 0H17.3281C18.985 0 20.3281 1.34315 20.3281 3V17C20.3281 18.6569 18.985 20 17.3281 20H3.32812C1.67127 20 0.328125 18.6569 0.328125 17V3Z" fill="white"/>
<path fill-rule="evenodd" clip-rule="evenodd" d="M17.3281 1.5H3.32813C2.4997 1.5 1.82812 2.17157 1.82812 3V17C1.82812 17.8284 2.4997 18.5 3.32812 18.5H17.3281C18.1566 18.5 18.8281 17.8284 18.8281 17V3C18.8281 2.17157 18.1566 1.5 17.3281 1.5ZM3.32813 0C1.67127 0 0.328125 1.34315 0.328125 3V17C0.328125 18.6569 1.67127 20 3.32812 20H17.3281C18.985 20 20.3281 18.6569 20.3281 17V3C20.3281 1.34315 18.985 0 17.3281 0H3.32813Z" fill="#B3B3B3"/>
</svg>
