<svg width="20" height="20" viewBox="0 0 20 20" fill="none" xmlns="http://www.w3.org/2000/svg">
<g opacity="0.8">
<path fill-rule="evenodd" clip-rule="evenodd" d="M15.9993 5.72085C15.8205 5.61761 15.6605 5.49432 15.5204 5.35546L13.868 6.2074C13.5145 6.3897 13.08 6.25084 12.8977 5.89726C12.7154 5.54368 12.8543 5.10925 13.2079 4.92695L14.861 4.07463C14.7762 3.55995 14.8623 3.01387 15.1435 2.52689C15.7891 1.40857 17.2191 1.0254 18.3374 1.67106C19.4558 2.31673 19.8389 3.74671 19.1933 4.86503C18.5476 5.98335 17.1176 6.36651 15.9993 5.72085ZM16.3969 3.25053C16.1509 3.67662 16.2968 4.22145 16.7229 4.46746C17.149 4.71346 17.6939 4.56747 17.9399 4.14138C18.1859 3.7153 18.0399 3.17046 17.6138 2.92446C17.1877 2.67846 16.6429 2.82445 16.3969 3.25053Z" fill="white"/>
<path fill-rule="evenodd" clip-rule="evenodd" d="M10.7953 12.2121C13.1116 12.2121 14.9611 14.2229 15.0458 16.6986L15.0489 16.8762V17.8428C15.0489 18.2541 14.7364 18.5928 14.3351 18.6361L14.2478 18.6408H1.30108C0.888149 18.6408 0.548193 18.3295 0.504701 17.9298L0.5 17.8428V16.8762C0.5 14.3792 2.29559 12.3103 4.58889 12.2155L4.75353 12.2121H10.7953ZM4.75353 13.5952C3.23919 13.5952 1.96266 14.9534 1.88669 16.7104L1.88311 16.8762L1.88234 17.2571H13.6657V16.8762C13.6657 15.0953 12.4351 13.6831 10.9366 13.5991L10.7953 13.5952H4.75353Z" fill="white"/>
<path fill-rule="evenodd" clip-rule="evenodd" d="M7.77443 3.63658C9.84689 3.63658 11.5238 5.32303 11.5238 7.39957C11.5238 9.47611 9.84689 11.1626 7.77443 11.1626C5.70197 11.1626 4.02503 9.47611 4.02503 7.39957C4.02503 5.32303 5.70197 3.63658 7.77443 3.63658ZM7.77443 5.01969C6.46834 5.01969 5.40814 6.0844 5.40814 7.39957C5.40814 8.71474 6.46834 9.77945 7.77443 9.77945C9.08052 9.77945 10.1407 8.71474 10.1407 7.39957C10.1407 6.0844 9.08052 5.01969 7.77443 5.01969Z" fill="white"/>
<path fill-rule="evenodd" clip-rule="evenodd" d="M13.9271 7.96298C13.5925 7.74791 13.1468 7.84487 12.9318 8.17954C12.7167 8.51421 12.8137 8.95986 13.1483 9.17492L14.7127 10.1802C14.6625 10.3708 14.6357 10.5709 14.6357 10.7773C14.6357 12.0686 15.6826 13.1155 16.9739 13.1155C18.2652 13.1155 19.312 12.0686 19.312 10.7773C19.312 9.48598 18.2652 8.43916 16.9739 8.43916C16.4115 8.43916 15.8954 8.63774 15.492 8.9686L13.9271 7.96298ZM16.083 10.7773C16.083 10.2853 16.4819 9.88646 16.9739 9.88646C17.4659 9.88646 17.8647 10.2853 17.8647 10.7773C17.8647 11.2693 17.4659 11.6682 16.9739 11.6682C16.4819 11.6682 16.083 11.2693 16.083 10.7773Z" fill="white"/>
</g>
</svg>
