<svg width="17" height="16" viewBox="0 0 17 16" fill="none" xmlns="http://www.w3.org/2000/svg">
<path fill-rule="evenodd" clip-rule="evenodd" d="M9.22154 11.6358C9.22154 12.1266 8.82365 12.5245 8.33284 12.5245C7.84202 12.5245 7.44414 12.1266 7.44414 11.6358C7.44414 11.145 7.84202 10.7471 8.33284 10.7471C8.82365 10.7471 9.22154 11.145 9.22154 11.6358Z" fill="#4D4D4D"/>
<path fill-rule="evenodd" clip-rule="evenodd" d="M7.33515 3.89508C7.81151 3.69776 8.33568 3.64614 8.84139 3.74673C9.34709 3.84732 9.8116 4.09561 10.1762 4.4602C10.5408 4.82479 10.7891 5.2893 10.8897 5.79501C10.9903 6.30071 10.9386 6.82488 10.7413 7.30124C10.544 7.7776 10.2099 8.18475 9.78114 8.47121C9.50218 8.65761 9.19132 8.78746 8.86613 8.85542V8.96969C8.86613 9.26425 8.62734 9.50303 8.33279 9.50303C8.03824 9.50303 7.79946 9.26425 7.79946 8.96969V8.37723C7.79946 8.23578 7.85565 8.10012 7.95567 8.0001C8.05569 7.90009 8.19134 7.84389 8.33279 7.84389C8.63743 7.84389 8.93523 7.75356 9.18854 7.58431C9.44184 7.41506 9.63926 7.1745 9.75584 6.89304C9.87242 6.61159 9.90293 6.30189 9.84349 6.0031C9.78406 5.70431 9.63736 5.42986 9.42195 5.21444C9.20653 4.99903 8.93208 4.85233 8.63329 4.7929C8.3345 4.73347 8.0248 4.76397 7.74335 4.88055C7.46189 4.99713 7.22133 5.19456 7.05208 5.44786C6.88283 5.70116 6.7925 5.99896 6.7925 6.3036C6.7925 6.59815 6.55371 6.83693 6.25916 6.83693C5.96461 6.83693 5.72583 6.59815 5.72583 6.3036C5.72583 5.78799 5.87872 5.28396 6.16518 4.85525C6.45164 4.42653 6.85879 4.09239 7.33515 3.89508Z" fill="#4D4D4D"/>
<path fill-rule="evenodd" clip-rule="evenodd" d="M8.33281 1.86745C4.94547 1.86745 2.19948 4.61343 2.19948 8.00078C2.19948 11.3881 4.94547 14.1341 8.33281 14.1341C11.7202 14.1341 14.4661 11.3881 14.4661 8.00078C14.4661 4.61343 11.7202 1.86745 8.33281 1.86745ZM1.13281 8.00078C1.13281 4.02433 4.35636 0.800781 8.33281 0.800781C12.3093 0.800781 15.5328 4.02433 15.5328 8.00078C15.5328 11.9772 12.3093 15.2008 8.33281 15.2008C4.35636 15.2008 1.13281 11.9772 1.13281 8.00078Z" fill="#4D4D4D"/>
</svg>
