<svg width="18" height="18" viewBox="0 0 18 18" fill="none" xmlns="http://www.w3.org/2000/svg">
<g clip-path="url(#clip0_4_320)">
<path fill-rule="evenodd" clip-rule="evenodd" d="M9.00046 2.1702C5.22642 2.1702 2.1702 5.21992 2.1702 8.97795C2.1702 10.5533 2.70632 12.0023 3.6073 13.1559C3.77095 13.3654 3.80775 13.6037 3.81251 13.7726C3.81742 13.9471 3.79009 14.1228 3.7565 14.2771C3.69489 14.5599 3.58624 14.8793 3.4923 15.1554C3.48484 15.1774 3.47746 15.1991 3.47021 15.2204C3.40673 15.4075 3.35197 15.5727 3.31088 15.7162C3.49295 15.6514 3.7028 15.5662 3.93299 15.4714C3.95566 15.4621 3.97854 15.4526 4.0016 15.4431C4.29018 15.3242 4.60644 15.1938 4.88002 15.1051C5.02786 15.0572 5.18844 15.0129 5.34248 14.9916C5.47177 14.9737 5.71403 14.9531 5.94646 15.0691C6.8647 15.5274 7.90139 15.7857 9.00046 15.7857C12.7745 15.7857 15.8307 12.736 15.8307 8.97795C15.8307 5.21992 12.7745 2.1702 9.00046 2.1702ZM2.88382 15.8307C2.88382 15.8307 2.88801 15.8302 2.89511 15.8306C2.88716 15.8311 2.88382 15.8307 2.88382 15.8307ZM0.914062 8.97795C0.914062 4.5226 4.53626 0.914062 9.00046 0.914062C13.4647 0.914062 17.0869 4.5226 17.0869 8.97795C17.0869 13.4333 13.4647 17.0418 9.00046 17.0418C7.74123 17.0418 6.54757 16.7544 5.48343 16.2411C5.43451 16.2505 5.36354 16.2688 5.26738 16.3C5.04238 16.373 4.76972 16.4853 4.46456 16.611C4.4469 16.6183 4.42912 16.6256 4.41125 16.6329C4.10175 16.7604 3.75549 16.9019 3.4584 16.9894C3.31081 17.0329 3.14414 17.0727 2.98169 17.0838C2.84333 17.0932 2.57057 17.0931 2.33462 16.9099C2.10213 16.7294 2.01706 16.4807 1.99 16.2894C1.96374 16.1036 1.98289 15.9183 2.00975 15.7651C2.06331 15.4595 2.18107 15.1103 2.28071 14.8167L2.29436 14.7765C2.3968 14.4748 2.48337 14.2198 2.52914 14.0097C2.54496 13.9371 2.55241 13.8845 2.55535 13.8487C1.52562 12.4957 0.914062 10.8073 0.914062 8.97795ZM5.54217 16.2336C5.54217 16.2336 5.53811 16.2341 5.53111 16.2339C5.53885 16.2333 5.54217 16.2336 5.54217 16.2336Z" fill="#4D4D4D"/>
<path d="M10.056 11.0969C8.74355 10.5714 7.6786 9.56894 7.07486 8.29079L6.91882 7.96071L7.70684 7.17293C7.81316 7.06664 7.81316 6.89451 7.70684 6.78821L6.53633 5.61805C6.41973 5.50148 6.22685 5.51449 6.12534 5.64434C5.07535 6.98792 5.48062 9.26696 7.11495 10.9008C8.74915 12.5347 11.029 12.9397 12.373 11.89C12.5029 11.7887 12.5157 11.5957 12.3993 11.4793L11.2288 10.3091C11.1224 10.2028 10.9501 10.2028 10.8438 10.3091L10.056 11.0969Z" fill="#4D4D4D"/>
</g>
<defs>
<clipPath id="clip0_4_320">
<rect width="18" height="18" fill="white"/>
</clipPath>
</defs>
</svg>
