<svg width="16" height="16" viewBox="0 0 16 16" fill="none" xmlns="http://www.w3.org/2000/svg">
<g clip-path="url(#clip0_4_443)">
<path fill-rule="evenodd" clip-rule="evenodd" d="M8.00018 6.67853C7.28118 6.67853 6.70198 7.25772 6.70198 7.97672C6.70198 8.69572 7.28118 9.27491 8.00018 9.27491C8.71917 9.27491 9.29837 8.69572 9.29837 7.97672C9.29837 7.25772 8.71917 6.67853 8.00018 6.67853ZM5.6368 7.97672C5.6368 6.67187 6.69533 5.61335 8.00018 5.61335C9.30503 5.61335 10.3636 6.67187 10.3636 7.97672C10.3636 9.28157 9.30503 10.3401 8.00018 10.3401C6.69533 10.3401 5.6368 9.28157 5.6368 7.97672Z" fill="white"/>
<path d="M8.04678 15.1667C7.58076 15.1667 7.14137 14.987 6.81516 14.6541C6.48895 14.3279 6.30254 13.8818 6.30254 13.4225C6.30254 13.2893 6.26925 13.1961 6.21599 13.1229C6.16273 13.043 6.08285 12.9897 5.9963 12.9565C5.87647 12.9032 5.78326 12.8965 5.69672 12.9099C5.60351 12.9232 5.52363 12.9698 5.45039 13.0363C5.25733 13.2294 5.06426 13.3559 4.85123 13.4491C4.42515 13.6289 3.93917 13.6289 3.51309 13.4491C3.30006 13.3626 3.10699 13.2361 2.94721 13.0696C2.78744 12.9099 2.66095 12.7168 2.56774 12.5038C2.4812 12.2907 2.43459 12.0644 2.43459 11.838C2.43459 11.6117 2.4812 11.3853 2.56774 11.1723C2.65429 10.9592 2.78078 10.7662 2.94721 10.6064C3.04707 10.5065 3.08702 10.42 3.10699 10.3334C3.12031 10.2402 3.10699 10.147 3.0737 10.0605C3.03376 9.97394 2.97384 9.90071 2.90061 9.85411C2.82072 9.80085 2.73418 9.77422 2.64097 9.77422H2.54111C2.07509 9.77422 1.63571 9.59447 1.30949 9.2616C0.983282 8.93539 0.796875 8.496 0.796875 8.02998C0.796875 7.56396 0.976625 7.12458 1.30949 6.79836C1.63571 6.47215 2.07509 6.28574 2.54111 6.28574C2.67426 6.28574 2.76746 6.25246 2.8407 6.1992C2.91393 6.14594 2.97384 6.06605 3.00713 5.9795C3.05373 5.86633 3.06705 5.76647 3.05373 5.67992C3.03376 5.58672 2.99382 5.50683 2.92724 5.44026C2.73418 5.24719 2.60769 5.05413 2.51448 4.84109C2.42794 4.62805 2.38133 4.4017 2.38133 4.17535C2.38133 3.949 2.42794 3.72265 2.51448 3.50961C2.60103 3.29657 2.72752 3.10351 2.89395 2.94373C3.06039 2.78396 3.2468 2.65746 3.45983 2.56426C3.88591 2.38451 4.3719 2.38451 4.79797 2.56426C5.01101 2.65081 5.20407 2.78396 5.36385 2.94373C5.46371 3.04359 5.5436 3.08354 5.6368 3.10351C5.73 3.11682 5.82321 3.10351 5.90975 3.07022C5.9497 3.05691 5.98964 3.04359 6.02959 3.03694C6.08285 3.00365 6.12945 2.95705 6.16939 2.89713C6.22265 2.8239 6.24928 2.7307 6.24928 2.64415V2.54429C6.24928 2.07827 6.42903 1.63888 6.7619 1.31267C7.42098 0.653589 8.57271 0.653589 9.22514 1.31267C9.55135 1.63888 9.73775 2.07827 9.73775 2.54429C9.73775 2.69075 9.76438 2.7773 9.81764 2.85053C9.8709 2.92376 9.93748 2.98368 10.024 3.02362C10.1172 3.06357 10.2104 3.07688 10.3036 3.05691C10.3968 3.03694 10.4767 2.99699 10.5433 2.93042C10.7364 2.73735 10.9294 2.61086 11.1425 2.51766C11.5685 2.33791 12.0545 2.33791 12.4806 2.51766C12.6936 2.60421 12.8867 2.7307 13.0465 2.89713C13.2129 3.06357 13.3394 3.24997 13.426 3.46301C13.5125 3.67605 13.5591 3.89574 13.5591 4.12875C13.5591 4.36176 13.5125 4.58145 13.426 4.79449C13.3394 5.00752 13.2129 5.19393 13.0465 5.36037C12.9533 5.46023 12.9067 5.54012 12.8867 5.63332C12.8667 5.72652 12.8867 5.81973 12.92 5.90627C12.94 5.94622 12.9466 5.98616 12.9599 6.02611C12.9932 6.07936 13.0398 6.12597 13.0997 6.16591C13.173 6.21917 13.2662 6.2458 13.3527 6.2458H13.4526C13.9119 6.2458 14.358 6.43221 14.6842 6.75842C15.0104 7.08463 15.1968 7.52402 15.1968 7.99004C15.1968 8.45605 15.0171 8.89544 14.6842 9.22165C14.358 9.54787 13.9119 9.73427 13.4526 9.73427C13.3061 9.73427 13.2196 9.7609 13.1463 9.81416C13.0731 9.86076 13.0132 9.934 12.9799 10.0205C12.94 10.1071 12.9333 10.2003 12.9466 10.2935C12.9666 10.3867 13.0065 10.4666 13.0731 10.5332C13.2662 10.7262 13.3927 10.9193 13.4859 11.1323C13.5724 11.3454 13.619 11.5717 13.619 11.7981C13.619 12.0244 13.5724 12.2508 13.4859 12.4638C13.3993 12.6768 13.2728 12.8633 13.1064 13.0297C12.94 13.1961 12.7536 13.3226 12.5405 13.4092C12.1211 13.5822 11.6285 13.5822 11.2024 13.4092C10.9893 13.3226 10.8029 13.1961 10.6365 13.0297C10.5366 12.9298 10.4501 12.8899 10.3636 12.8699C10.277 12.8499 10.1771 12.8699 10.0906 12.9032C10.0041 12.9431 9.93082 13.0031 9.88422 13.0763C9.83096 13.1562 9.80433 13.2427 9.80433 13.3359V13.4358C9.80433 13.8951 9.61792 14.3412 9.29171 14.6674C8.9655 14.9936 8.51945 15.18 8.06009 15.18L8.04678 15.1667ZM5.78326 11.838C5.9963 11.838 6.20268 11.8846 6.4024 11.9712C6.66204 12.0644 6.90836 12.2508 7.08811 12.5038C7.26786 12.7567 7.36772 13.0497 7.37438 13.3559V13.4225C7.37438 13.6022 7.44761 13.7753 7.5741 13.9018C7.82708 14.1548 8.27979 14.1548 8.53277 13.9018C8.65926 13.7753 8.73249 13.6022 8.73249 13.4225V13.3226C8.73249 13.0164 8.82569 12.7301 8.98547 12.4838C9.1519 12.2375 9.38491 12.0377 9.65787 11.9246C9.93748 11.8047 10.2437 11.7648 10.5433 11.818C10.8495 11.8713 11.1225 12.0178 11.3422 12.2308C11.442 12.3307 11.5219 12.3839 11.6018 12.4172C11.7683 12.4838 11.9613 12.4838 12.1211 12.4172C12.201 12.3839 12.2809 12.3307 12.3408 12.2707C12.4007 12.2042 12.454 12.1309 12.4873 12.051C12.5205 11.9712 12.5405 11.8846 12.5405 11.7914C12.5405 11.6982 12.5205 11.6117 12.4873 11.5318C12.454 11.4519 12.4007 11.372 12.3408 11.3121C12.0878 11.0524 11.9414 10.7795 11.8881 10.4732C11.8348 10.1737 11.8681 9.86742 11.9946 9.58781C12.1144 9.31486 12.3075 9.08185 12.5538 8.91541C12.8068 8.74898 13.0931 8.66243 13.3927 8.66243C13.6257 8.66243 13.8054 8.5892 13.9319 8.46271C14.0584 8.33622 14.1316 8.16313 14.1316 7.98338C14.1316 7.80363 14.0584 7.63054 13.9319 7.50405C13.8054 7.37756 13.6323 7.30433 13.4526 7.30433H13.3527C13.0531 7.30433 12.7602 7.21778 12.5139 7.05134C12.2609 6.88491 12.0678 6.6519 11.9547 6.37895C11.9347 6.33235 11.9214 6.27909 11.9147 6.23248C11.8282 5.9795 11.8015 5.71321 11.8481 5.44691C11.9014 5.14733 12.0479 4.86772 12.2609 4.64803C12.3674 4.54151 12.414 4.46828 12.4473 4.38839C12.4806 4.30184 12.5006 4.21529 12.5006 4.12875C12.5006 4.0422 12.4806 3.949 12.4473 3.86911C12.414 3.78922 12.3608 3.70933 12.3009 3.64942C12.2343 3.58284 12.161 3.53624 12.0812 3.50295C11.9147 3.43638 11.7283 3.43638 11.5619 3.50295C11.482 3.53624 11.4088 3.5895 11.3422 3.64942C11.0825 3.9024 10.8096 4.04886 10.5034 4.10212C10.1971 4.15538 9.89088 4.12209 9.61126 3.9956C9.33831 3.88243 9.11196 3.6827 8.94553 3.43638C8.77909 3.1834 8.69254 2.89713 8.69254 2.59755C8.69254 2.35788 8.61931 2.19145 8.49282 2.06496C8.23318 1.80532 7.78714 1.80532 7.53416 2.06496C7.40767 2.19145 7.33444 2.36454 7.33444 2.54429V2.64415C7.33444 2.94373 7.24789 3.23666 7.08145 3.48298C6.91502 3.72931 6.68201 3.92903 6.40906 4.0422C6.36246 4.06217 6.3092 4.07549 6.2626 4.08215C6.00961 4.16869 5.74332 4.19532 5.47702 4.14872C5.17744 4.09546 4.89783 3.949 4.67814 3.73596C4.57162 3.62944 4.49839 3.58284 4.4185 3.54956C4.25206 3.48298 4.06566 3.48298 3.89922 3.54956C3.81933 3.58284 3.73944 3.6361 3.67953 3.69602C3.61295 3.75593 3.56635 3.83582 3.53306 3.91571C3.49978 3.9956 3.4798 4.08215 3.4798 4.17535C3.4798 4.26855 3.49978 4.3551 3.53306 4.43499C3.56635 4.51488 3.61961 4.58811 3.67953 4.65468C3.93251 4.91432 4.07897 5.19393 4.13223 5.49351C4.18549 5.7931 4.1522 6.10599 4.02571 6.3856C3.93251 6.64524 3.73944 6.89157 3.49312 7.07132C3.24014 7.25107 2.94721 7.35093 2.64097 7.35758C2.39465 7.35758 2.22156 7.43082 2.09507 7.55731C1.96858 7.6838 1.89535 7.85689 1.89535 8.03664C1.89535 8.21639 1.96858 8.38948 2.09507 8.51597C2.22156 8.64246 2.39465 8.71569 2.5744 8.71569H2.67426C2.9805 8.71569 3.26677 8.8089 3.51975 8.96867C3.76607 9.13511 3.95914 9.36812 4.07897 9.64107C4.1988 9.91402 4.23875 10.2269 4.18549 10.5265C4.13223 10.8327 3.98577 11.1057 3.77273 11.3254C3.66621 11.4319 3.61961 11.5051 3.58632 11.585C3.55304 11.6649 3.53306 11.7515 3.53306 11.8447C3.53306 11.9379 3.55304 12.0244 3.58632 12.1043C3.61961 12.1842 3.67287 12.2574 3.73279 12.324C3.7927 12.3839 3.87259 12.4372 3.95248 12.4705C4.11891 12.537 4.30532 12.537 4.47176 12.4705C4.55165 12.4372 4.63153 12.3839 4.69145 12.324C4.95109 12.0644 5.2307 11.9246 5.53028 11.8713C5.62349 11.8513 5.71003 11.8447 5.80324 11.8447L5.78326 11.838Z" fill="white"/>
</g>
<defs>
<clipPath id="clip0_4_443">
<rect width="16" height="16" fill="white"/>
</clipPath>
</defs>
</svg>
