<svg width="19" height="18" viewBox="0 0 19 18" fill="none" xmlns="http://www.w3.org/2000/svg">
<path fill-rule="evenodd" clip-rule="evenodd" d="M9.66453 2.1702C5.89049 2.1702 2.83427 5.21992 2.83427 8.97795C2.83427 10.5533 3.37038 12.0023 4.27136 13.1559C4.43501 13.3654 4.47182 13.6037 4.47657 13.7726C4.48148 13.9471 4.45416 14.1228 4.42057 14.2771C4.35895 14.5599 4.2503 14.8793 4.15636 15.1554C4.1489 15.1774 4.14152 15.1991 4.13428 15.2204C4.07079 15.4075 4.01604 15.5727 3.97494 15.7162C4.15701 15.6514 4.36686 15.5662 4.59706 15.4714C4.61972 15.4621 4.6426 15.4526 4.66566 15.4431C4.95424 15.3242 5.2705 15.1938 5.54409 15.1051C5.69192 15.0572 5.8525 15.0129 6.00654 14.9916C6.13583 14.9737 6.3781 14.9531 6.61052 15.0691C7.52876 15.5274 8.56546 15.7857 9.66453 15.7857C13.4386 15.7857 16.4948 12.736 16.4948 8.97795C16.4948 5.21992 13.4386 2.1702 9.66453 2.1702ZM3.54788 15.8307C3.54788 15.8307 3.55207 15.8302 3.55917 15.8306C3.55122 15.8311 3.54788 15.8307 3.54788 15.8307ZM1.57812 8.97795C1.57812 4.5226 5.20032 0.914062 9.66453 0.914062C14.1287 0.914062 17.7509 4.5226 17.7509 8.97795C17.7509 13.4333 14.1287 17.0418 9.66453 17.0418C8.40529 17.0418 7.21163 16.7544 6.14749 16.2411C6.09857 16.2505 6.02761 16.2688 5.93144 16.3C5.70644 16.373 5.43378 16.4853 5.12862 16.611C5.11096 16.6183 5.09319 16.6256 5.07531 16.6329C4.76581 16.7604 4.41955 16.9019 4.12246 16.9894C3.97487 17.0329 3.8082 17.0727 3.64576 17.0838C3.50739 17.0932 3.23463 17.0931 2.99868 16.9099C2.7662 16.7294 2.68112 16.4807 2.65406 16.2894C2.6278 16.1036 2.64695 15.9183 2.67381 15.7651C2.72737 15.4595 2.84514 15.1103 2.94477 14.8167L2.95842 14.7765C3.06086 14.4748 3.14743 14.2198 3.1932 14.0097C3.20902 13.9371 3.21648 13.8845 3.21941 13.8487C2.18968 12.4957 1.57812 10.8073 1.57812 8.97795ZM6.20623 16.2336C6.20623 16.2336 6.20217 16.2341 6.19517 16.2339C6.20292 16.2333 6.20623 16.2336 6.20623 16.2336Z" fill="#4D4D4D"/>
<path d="M10.7201 11.0969C9.40761 10.5714 8.34266 9.56894 7.73893 8.29079L7.58289 7.96071L8.3709 7.17293C8.47723 7.06664 8.47723 6.89451 8.3709 6.78821L7.2004 5.61805C7.08379 5.50148 6.89092 5.51449 6.78941 5.64434C5.73941 6.98792 6.14468 9.26696 7.77901 10.9008C9.41321 12.5347 11.693 12.9397 13.037 11.89C13.1669 11.7887 13.1798 11.5957 13.0633 11.4793L11.8928 10.3091C11.7865 10.2028 11.6142 10.2028 11.5079 10.3091L10.7201 11.0969Z" fill="#4D4D4D"/>
</svg>
