<svg width="19" height="18" viewBox="0 0 19 18" fill="none" xmlns="http://www.w3.org/2000/svg">
<path fill-rule="evenodd" clip-rule="evenodd" d="M9.32859 2.1702C5.55455 2.1702 2.49833 5.21992 2.49833 8.97795C2.49833 10.5533 3.03444 12.0023 3.93542 13.1559C4.09907 13.3654 4.13588 13.6037 4.14063 13.7726C4.14554 13.9471 4.11822 14.1228 4.08463 14.2771C4.02301 14.5599 3.91436 14.8793 3.82043 15.1554C3.81296 15.1774 3.80559 15.1991 3.79834 15.2204C3.73485 15.4075 3.6801 15.5727 3.639 15.7162C3.82107 15.6514 4.03092 15.5662 4.26112 15.4714C4.28379 15.4621 4.30667 15.4526 4.32973 15.4431C4.6183 15.3242 4.93456 15.1938 5.20815 15.1051C5.35598 15.0572 5.51656 15.0129 5.6706 14.9916C5.79989 14.9737 6.04216 14.9531 6.27459 15.0691C7.19283 15.5274 8.22952 15.7857 9.32859 15.7857C13.1026 15.7857 16.1589 12.736 16.1589 8.97795C16.1589 5.21992 13.1026 2.1702 9.32859 2.1702ZM3.21194 15.8307C3.21194 15.8307 3.21613 15.8302 3.22324 15.8306C3.21528 15.8311 3.21194 15.8307 3.21194 15.8307ZM1.24219 8.97795C1.24219 4.5226 4.86439 0.914062 9.32859 0.914062C13.7928 0.914062 17.415 4.5226 17.415 8.97795C17.415 13.4333 13.7928 17.0418 9.32859 17.0418C8.06935 17.0418 6.8757 16.7544 5.81156 16.2411C5.76263 16.2505 5.69167 16.2688 5.59551 16.3C5.3705 16.373 5.09784 16.4853 4.79268 16.611C4.77502 16.6183 4.75725 16.6256 4.73937 16.6329C4.42987 16.7604 4.08362 16.9019 3.78652 16.9894C3.63893 17.0329 3.47227 17.0727 3.30982 17.0838C3.17145 17.0932 2.8987 17.0931 2.66274 16.9099C2.43026 16.7294 2.34518 16.4807 2.31812 16.2894C2.29186 16.1036 2.31101 15.9183 2.33787 15.7651C2.39143 15.4595 2.5092 15.1103 2.60883 14.8167L2.62248 14.7765C2.72493 14.4748 2.8115 14.2198 2.85727 14.0097C2.87309 13.9371 2.88054 13.8845 2.88347 13.8487C1.85375 12.4957 1.24219 10.8073 1.24219 8.97795ZM5.87029 16.2336C5.87029 16.2336 5.86623 16.2341 5.85923 16.2339C5.86698 16.2333 5.87029 16.2336 5.87029 16.2336Z" fill="#4D4D4D"/>
<path d="M10.3842 11.0969C9.07168 10.5714 8.00672 9.56894 7.40299 8.29079L7.24695 7.96071L8.03496 7.17293C8.14129 7.06664 8.14129 6.89451 8.03496 6.78821L6.86446 5.61805C6.74785 5.50148 6.55498 5.51449 6.45347 5.64434C5.40348 6.98792 5.80874 9.26696 7.44307 10.9008C9.07727 12.5347 11.3571 12.9397 12.7011 11.89C12.831 11.7887 12.8439 11.5957 12.7274 11.4793L11.5569 10.3091C11.4506 10.2028 11.2782 10.2028 11.1719 10.3091L10.3842 11.0969Z" fill="#4D4D4D"/>
</svg>
