<svg width="16" height="16" fill="none" xmlns="http://www.w3.org/2000/svg"><path fill-rule="evenodd" clip-rule="evenodd" d="M3.082 3.086A.975.975 0 0 1 4.362 3l.01.009.089.078 3.536 3.537 3.536-3.537a.975.975 0 0 1 1.3-.07l.008.006.07.064c.348.347.38.895.08 1.289l-.005.005-.074.085L9.375 8l3.536 3.536a.975.975 0 0 1 .071 1.3l-.006.008-.064.07a.977.977 0 0 1-1.289.08l-.005-.005-.085-.074-3.537-3.537-3.535 3.536a.975.975 0 0 1-1.3.071l-.008-.007-.07-.063a.977.977 0 0 1-.08-1.289l.004-.006.075-.084L6.618 8 3.082 4.465a.975.975 0 0 1-.07-1.3l.006-.008.064-.07Z" fill="#4D4D4D"/></svg>