<svg width="14" height="14" fill="none" xmlns="http://www.w3.org/2000/svg"><g clip-path="url('#clip0_4_288')"><path d="M5.95 10.526c-2.509 0-4.55-2.046-4.55-4.561s2.041-4.561 4.55-4.561 4.55 2.046 4.55 4.56c0 2.516-2.041 4.562-4.55 4.562Zm4.794-1.043A5.935 5.935 0 0 0 11.9 5.965C11.9 2.675 9.23 0 5.95 0 2.67 0 0 2.676 0 5.965c0 3.289 2.67 5.965 5.95 5.965a5.906 5.906 0 0 0 3.84-1.418l2.463 2.468a.697.697 0 0 0 .99 0 .702.702 0 0 0 0-.993l-2.499-2.504Z" fill="#999"/></g><defs><clipPath id="clip0_4_288"><path fill="#fff" d="M0 0h14v14H0z"/></clipPath></defs></svg>