<svg width="36" height="36" fill="none" xmlns="http://www.w3.org/2000/svg"><path d="M26 19.941c.371 0 .681.27.744.656l.006.103v3.532a2.525 2.525 0 0 1-2.369 2.513l-.166.005H11.778a2.527 2.527 0 0 1-2.523-2.359l-.005-.165v-3.54c0-.411.336-.745.75-.745.372 0 .682.27.744.656l.007.103v3.532c0 .524.395.97.902 1.021l.114.007h12.455c.523 0 .968-.396 1.02-.902l.007-.115v-3.557c0-.411.336-.745.75-.745ZM18.011 9.25c.36 0 .67.27.732.656l.006.103.001 8.82 3.161-3.154c.231-.23.58-.282.884-.127l.112.067.077.068c.248.247.28.648.056.968l-.076.086-4.45 4.438-.082.066-.106.063-.09.036-.082.022-.08.012-.062.003-.123-.007-.105-.023-.082-.03-.102-.053-.059-.042-.085-.074-4.433-4.422a.741.741 0 0 1 .002-1.053c.26-.258.664-.287.986-.063l.086.075 3.153 3.145-.001-8.835c0-.376.283-.692.655-.739l.107-.006Z" fill="#4D4D4D"/><path d="M4 .5h28A3.5 3.5 0 0 1 35.5 4v28a3.5 3.5 0 0 1-3.5 3.5H4A3.5 3.5 0 0 1 .5 32V4A3.5 3.5 0 0 1 4 .5Z" stroke="#D9D9D9"/></svg>