<svg width="40" height="40" fill="none" xmlns="http://www.w3.org/2000/svg"><g clip-path="url('#clip0_4_177')"><circle cx="20" cy="20" r="20" fill="#E6E6E6"/><path d="m28.421 10.024-17.305 3.358c-.653.117-1.116.747-1.116 1.47v7.65c0 .723.463 1.353 1.116 1.47l1.768.35c.716 1.305 2.063 3.568 3.874 5.41.61.63 1.62.07 1.495-.863-.169-1.236-.127-2.565-.064-3.498l10.232 2.006c.821.163 1.579-.537 1.579-1.47V11.493c0-.933-.758-1.633-1.579-1.47Zm-11.958 9.61c0 .256-.19.466-.42.466h-1.727c-.232 0-.421-.21-.421-.467v-1.912c0-.257.19-.467.42-.467h1.727c.232 0 .421.21.421.467v1.912Zm4.821 0c0 .256-.19.466-.42.466h-1.727c-.232 0-.421-.21-.421-.467v-1.912c0-.257.19-.467.42-.467h1.727c.232 0 .421.21.421.467v1.912Zm4.842 0c0 .256-.19.466-.42.466h-1.727c-.232 0-.421-.21-.421-.467v-1.912c0-.257.19-.467.42-.467h1.706c.232 0 .421.21.421.467v1.912h.021Z" fill="#4D4D4D"/></g><defs><clipPath id="clip0_4_177"><path fill="#fff" d="M0 0h40v40H0z"/></clipPath></defs></svg>