<svg width="20" height="20" fill="none" xmlns="http://www.w3.org/2000/svg"><g opacity=".8" fill-rule="evenodd" clip-rule="evenodd" fill="#fff"><path d="M16 5.72a2.345 2.345 0 0 1-.48-.365l-1.652.852a.72.72 0 1 1-.66-1.28l1.653-.852a2.338 2.338 0 1 1 1.138 1.646Zm.397-2.47a.89.89 0 1 0 1.543.891.89.89 0 0 0-1.543-.89ZM10.795 12.212c2.317 0 4.166 2.01 4.25 4.487l.004.177v.967a.8.8 0 0 1-.714.793l-.087.005H1.3a.8.8 0 0 1-.796-.711L.5 17.843v-.967c0-2.497 1.796-4.566 4.089-4.66l.165-.004h6.041Zm-6.041 1.383c-1.515 0-2.791 1.358-2.867 3.115l-.004.166v.381h11.783v-.38c0-1.782-1.23-3.194-2.73-3.278l-.14-.004H4.753ZM7.774 3.637a3.756 3.756 0 0 1 3.75 3.763 3.756 3.756 0 0 1-3.75 3.763A3.756 3.756 0 0 1 4.025 7.4a3.756 3.756 0 0 1 3.75-3.763Zm0 1.383A2.373 2.373 0 0 0 5.408 7.4c0 1.315 1.06 2.38 2.366 2.38a2.373 2.373 0 0 0 2.367-2.38c0-1.316-1.06-2.38-2.367-2.38ZM13.927 7.963a.72.72 0 1 0-.779 1.212l1.565 1.005a2.341 2.341 0 0 0 2.26 2.936 2.338 2.338 0 1 0-1.481-4.147l-1.565-1.006Zm2.156 2.814a.89.89 0 1 1 1.782 0 .89.89 0 0 1-1.782 0Z"/></g></svg>