<svg width="20" height="20" fill="none" xmlns="http://www.w3.org/2000/svg"><path fill-rule="evenodd" clip-rule="evenodd" d="M6.378 2.949c0-1.082.876-1.959 1.958-1.959h3.333c1.082 0 1.959.877 1.959 1.959v3.333a1.958 1.958 0 0 1-1.959 1.958h-1v2.375h4.75c1.059 0 1.917.858 1.917 1.917v1.952a2.314 2.314 0 1 1-1.333 0v-1.952a.583.583 0 0 0-.584-.583h-4.75v2.535a2.314 2.314 0 1 1-1.333 0v-2.535h-4.75a.583.583 0 0 0-.583.583v1.952a2.314 2.314 0 1 1-1.334 0v-1.952c0-1.059.858-1.917 1.917-1.917h4.75V8.24h-1a1.958 1.958 0 0 1-1.958-1.958V2.949Zm1.958-.542c-.3 0-.542.242-.542.542v3.333c0 .3.243.542.542.542h3.333c.3 0 .542-.243.542-.542V2.949c0-.3-.243-.542-.542-.542H8.336Zm-5 13.27a1.02 1.02 0 1 0 0 2.042 1.02 1.02 0 0 0 0-2.041ZM8.982 16.7a1.02 1.02 0 1 1 2.042 0 1.02 1.02 0 0 1-2.042 0Zm7.687-1.021a1.02 1.02 0 1 0 0 2.042 1.02 1.02 0 0 0 0-2.042Z" fill="#fff" opacity=".8"/></svg>