<svg width="20" height="20" fill="none" xmlns="http://www.w3.org/2000/svg"><path fill-rule="evenodd" clip-rule="evenodd" d="M10.004 8.349A1.62 1.62 0 0 0 8.381 9.97a1.62 1.62 0 0 0 1.623 1.623 1.62 1.62 0 0 0 1.623-1.623 1.62 1.62 0 0 0-1.623-1.622ZM7.05 9.97a2.955 2.955 0 1 1 5.91.002 2.955 2.955 0 0 1-5.91-.002Z" fill="gray"/><path d="M10.062 18.959a2.138 2.138 0 0 1-1.54-.64 2.187 2.187 0 0 1-.64-1.54.607.607 0 0 0-.108-.375.566.566 0 0 0-.275-.208.639.639 0 0 0-.374-.058.578.578 0 0 0-.308.158c-.241.241-.483.4-.75.516a2.16 2.16 0 0 1-1.672 0 2.037 2.037 0 0 1-.707-.475c-.2-.2-.358-.44-.474-.707a2.216 2.216 0 0 1-.167-.832c0-.283.058-.566.167-.832.108-.266.266-.508.474-.707a.675.675 0 0 0 .2-.342.68.68 0 0 0-.042-.34.603.603 0 0 0-.54-.359H3.18a2.138 2.138 0 0 1-1.54-.64 2.173 2.173 0 0 1 0-3.08c.409-.407.958-.64 1.54-.64a.608.608 0 0 0 .375-.109.622.622 0 0 0 .208-.274c.058-.142.075-.266.058-.375a.583.583 0 0 0-.158-.3 2.375 2.375 0 0 1-.516-.748 2.216 2.216 0 0 1-.166-.832c0-.283.058-.566.166-.832.108-.267.266-.508.474-.708a2.4 2.4 0 0 1 .708-.474 2.16 2.16 0 0 1 1.672 0c.267.108.508.274.708.474a.644.644 0 0 0 .34.2.68.68 0 0 0 .342-.042c.05-.016.1-.033.15-.041a.583.583 0 0 0 .175-.175.548.548 0 0 0 .1-.316V3.18c0-.583.224-1.132.64-1.54.824-.824 2.264-.824 3.08 0 .407.408.64.957.64 1.54 0 .183.033.291.1.383.066.091.15.166.258.216a.583.583 0 0 0 .65-.116c.24-.242.482-.4.748-.516a2.16 2.16 0 0 1 1.673 0c.266.108.507.266.707.474a2.184 2.184 0 0 1 .64 1.54 2.184 2.184 0 0 1-.64 1.539c-.117.125-.175.225-.2.341a.6.6 0 0 0 .042.341c.025.05.033.1.05.15.041.067.1.125.175.175.091.066.208.1.316.1h.125A2.187 2.187 0 0 1 19 9.988c0 .583-.225 1.132-.64 1.54-.409.407-.966.64-1.54.64-.183 0-.292.034-.383.1a.534.534 0 0 0-.208.258.6.6 0 0 0-.042.341.582.582 0 0 0 .158.3c.242.241.4.483.516.749.108.266.167.55.167.832 0 .283-.059.566-.167.832-.108.267-.266.5-.474.708a2.117 2.117 0 0 1-.707.474 2.236 2.236 0 0 1-1.673 0 2.117 2.117 0 0 1-.707-.474.674.674 0 0 0-.342-.2.602.602 0 0 0-.699.582v.125a2.187 2.187 0 0 1-2.18 2.18l-.017-.016Zm-2.829-4.161c.266 0 .524.058.774.166.324.117.632.35.857.666.225.316.35.683.358 1.065v.084a.85.85 0 0 0 .25.599.875.875 0 0 0 1.198 0 .85.85 0 0 0 .25-.6v-.124c0-.383.116-.74.316-1.049a1.944 1.944 0 0 1 1.947-.832c.383.067.724.25.999.516a.997.997 0 0 0 .324.233c.208.083.45.083.65 0 .1-.042.199-.108.274-.183a.989.989 0 0 0 .183-.275.838.838 0 0 0-.183-.923c-.316-.325-.5-.666-.566-1.049a1.874 1.874 0 0 1 .133-1.107c.15-.34.391-.632.7-.84a1.891 1.891 0 0 1 1.048-.316c.291 0 .516-.092.674-.25a.85.85 0 0 0 .25-.6.85.85 0 0 0-.85-.848h-.124c-.375 0-.74-.108-1.049-.316a1.856 1.856 0 0 1-.699-.84.752.752 0 0 1-.05-.184 1.966 1.966 0 0 1-.083-.982c.067-.374.25-.724.516-.998a.958.958 0 0 0 .233-.325.905.905 0 0 0 .067-.325.87.87 0 0 0-.25-.599.836.836 0 0 0-.275-.183.875.875 0 0 0-.649 0 .991.991 0 0 0-.274.183c-.325.316-.666.5-1.049.566a1.894 1.894 0 0 1-1.115-.133 1.888 1.888 0 0 1-.832-.699 1.892 1.892 0 0 1-.316-1.049c0-.3-.092-.507-.25-.665a.86.86 0 0 0-1.198 0 .85.85 0 0 0-.25.599v.125c0 .374-.108.74-.316 1.048a1.91 1.91 0 0 1-.84.7.75.75 0 0 1-.184.05c-.316.107-.649.14-.982.082a1.928 1.928 0 0 1-.998-.516.957.957 0 0 0-.325-.233.875.875 0 0 0-.65 0c-.099.042-.199.109-.274.184a.758.758 0 0 0-.183.274.838.838 0 0 0 0 .65.99.99 0 0 0 .183.274c.317.324.5.674.566 1.048.067.375.025.766-.133 1.115a1.887 1.887 0 0 1-.666.858c-.316.224-.682.35-1.065.357-.308 0-.524.092-.682.25a.85.85 0 0 0-.25.6.851.851 0 0 0 .849.848h.125c.383 0 .74.117 1.057.316.308.208.549.5.699.84.15.342.2.733.133 1.108-.067.382-.25.724-.516.998a.957.957 0 0 0-.233.325.837.837 0 0 0 0 .649.99.99 0 0 0 .183.274.882.882 0 0 0 .275.184.875.875 0 0 0 .649 0c.1-.042.2-.109.274-.184a1.93 1.93 0 0 1 1.049-.565c.116-.025.224-.034.341-.034l-.025-.008Z" fill="gray"/></svg>