<svg width="16" height="16" fill="none" xmlns="http://www.w3.org/2000/svg"><g clip-path="url('#clip0_4_443')" fill="#fff"><path fill-rule="evenodd" clip-rule="evenodd" d="M8 6.679c-.719 0-1.298.579-1.298 1.298 0 .719.58 1.298 1.298 1.298.72 0 1.298-.58 1.298-1.298 0-.72-.579-1.298-1.298-1.298ZM5.637 7.977a2.364 2.364 0 1 1 4.728 0 2.364 2.364 0 0 1-4.728 0Z"/><path d="M8.047 15.167a1.71 1.71 0 0 1-1.232-.513 1.75 1.75 0 0 1-.512-1.232.486.486 0 0 0-.087-.3.452.452 0 0 0-.22-.165.51.51 0 0 0-.3-.047.463.463 0 0 0-.246.126 1.9 1.9 0 0 1-.599.413c-.426.18-.912.18-1.338 0a1.628 1.628 0 0 1-.566-.38 1.837 1.837 0 0 1-.38-.565 1.773 1.773 0 0 1-.132-.666c0-.226.046-.453.133-.666a1.63 1.63 0 0 1 .38-.566c.1-.1.139-.186.159-.273a.544.544 0 0 0-.033-.273.482.482 0 0 0-.433-.286h-.1a1.71 1.71 0 0 1-1.232-.512 1.738 1.738 0 0 1 0-2.464 1.738 1.738 0 0 1 1.232-.512.486.486 0 0 0 .3-.087.497.497 0 0 0 .166-.22c.047-.113.06-.213.047-.3a.466.466 0 0 0-.127-.239 1.9 1.9 0 0 1-.413-.599 1.773 1.773 0 0 1-.133-.666c0-.226.047-.452.133-.665a1.63 1.63 0 0 1 .38-.566 1.92 1.92 0 0 1 .566-.38c.426-.18.912-.18 1.338 0 .213.087.406.22.566.38.1.1.18.14.273.16.093.013.186 0 .273-.034.04-.013.08-.026.12-.033.053-.033.1-.08.14-.14a.438.438 0 0 0 .08-.253v-.1c0-.466.179-.905.512-1.231.659-.66 1.81-.66 2.463 0 .326.326.513.765.513 1.231 0 .147.026.233.08.307.053.073.12.133.206.173a.467.467 0 0 0 .52-.093 1.9 1.9 0 0 1 .598-.413c.427-.18.913-.18 1.339 0 .213.086.406.213.566.38a1.748 1.748 0 0 1 .513 1.232 1.748 1.748 0 0 1-.514 1.23c-.093.1-.14.18-.16.273a.48.48 0 0 0 .034.273c.02.04.027.08.04.12.033.053.08.1.14.14.073.053.166.08.253.08h.1a1.75 1.75 0 0 1 1.744 1.744c0 .466-.18.905-.513 1.232a1.75 1.75 0 0 1-1.231.512c-.147 0-.233.027-.307.08a.428.428 0 0 0-.166.207.48.48 0 0 0-.033.272c.02.094.06.174.126.24a1.9 1.9 0 0 1 .413.6c.086.212.133.439.133.665 0 .226-.047.453-.133.666-.087.213-.213.4-.38.566a1.694 1.694 0 0 1-.566.38 1.79 1.79 0 0 1-1.338 0 1.694 1.694 0 0 1-.566-.38.54.54 0 0 0-.272-.16.486.486 0 0 0-.48.206.459.459 0 0 0-.08.26v.1A1.75 1.75 0 0 1 8.06 15.18l-.013-.013Zm-2.264-3.329c.213 0 .42.047.62.133.259.093.505.28.685.533.18.253.28.546.286.852v.066c0 .18.074.353.2.48a.7.7 0 0 0 .959 0 .68.68 0 0 0 .2-.48v-.1c0-.306.093-.592.252-.838a1.554 1.554 0 0 1 1.558-.666c.307.053.58.2.8.413.099.1.179.153.259.186a.7.7 0 0 0 .52 0 .704.704 0 0 0 .219-.146.792.792 0 0 0 .146-.22.671.671 0 0 0-.146-.739c-.253-.26-.4-.532-.453-.839a1.5 1.5 0 0 1 .107-.885 1.513 1.513 0 0 1 1.398-.925c.233 0 .412-.074.539-.2a.68.68 0 0 0 .2-.48.68.68 0 0 0-.68-.679h-.1c-.299 0-.592-.086-.838-.253a1.484 1.484 0 0 1-.56-.672.601.601 0 0 1-.04-.147 1.574 1.574 0 0 1-.066-.785c.053-.3.2-.58.413-.799a.766.766 0 0 0 .186-.26.724.724 0 0 0 .054-.26.696.696 0 0 0-.2-.479.67.67 0 0 0-.22-.146.7.7 0 0 0-.52 0 .792.792 0 0 0-.219.146c-.26.253-.532.4-.839.453-.306.053-.612.02-.892-.106a1.51 1.51 0 0 1-.665-.56 1.513 1.513 0 0 1-.253-.838c0-.24-.074-.407-.2-.533a.687.687 0 0 0-.959 0 .68.68 0 0 0-.2.48v.1a1.527 1.527 0 0 1-.925 1.398.6.6 0 0 1-.146.04c-.253.086-.52.112-.786.066-.3-.054-.58-.2-.799-.413a.766.766 0 0 0-.26-.186.7.7 0 0 0-.519 0 .705.705 0 0 0-.22.146.606.606 0 0 0-.146.22.67.67 0 0 0 0 .519c.033.08.087.153.147.22.253.26.399.539.452.839.053.3.02.612-.106.892a1.51 1.51 0 0 1-.533.685c-.253.18-.546.28-.852.287-.246 0-.42.073-.546.2a.68.68 0 0 0-.2.479.68.68 0 0 0 .68.679h.1c.306 0 .592.093.845.253.246.166.44.4.559.672.12.273.16.586.106.886-.053.306-.2.579-.412.798a.765.765 0 0 0-.187.26.67.67 0 0 0 0 .52c.034.08.087.152.147.219.06.06.14.113.22.146a.7.7 0 0 0 .519 0 .706.706 0 0 0 .22-.146 1.544 1.544 0 0 1 1.111-.48l-.02-.006Z"/></g><defs><clipPath id="clip0_4_443"><path fill="#fff" d="M0 0h16v16H0z"/></clipPath></defs></svg>