<svg width="19" height="18" fill="none" xmlns="http://www.w3.org/2000/svg"><path fill-rule="evenodd" clip-rule="evenodd" d="M9.336 2.17c-3.774 0-6.83 3.05-6.83 6.808 0 1.575.536 3.024 1.437 4.178.164.21.2.448.205.617.005.174-.022.35-.056.504a8.534 8.534 0 0 1-.286.943 11.28 11.28 0 0 0-.16.496c.183-.065.393-.15.623-.245l.069-.028c.288-.119.604-.25.878-.338.148-.048.308-.092.462-.113.13-.018.372-.039.604.077a6.818 6.818 0 0 0 3.054.717c3.774 0 6.83-3.05 6.83-6.808S13.11 2.17 9.337 2.17ZM3.22 15.83h.011-.011ZM1.25 8.979C1.25 4.523 4.872.914 9.336.914c4.465 0 8.087 3.609 8.087 8.064s-3.622 8.064-8.087 8.064a8.075 8.075 0 0 1-3.517-.8c-.049.008-.12.027-.216.058a12.163 12.163 0 0 0-.856.333c-.31.127-.656.269-.953.356a2.277 2.277 0 0 1-.476.095c-.139.01-.411.01-.647-.174a.936.936 0 0 1-.345-.62 1.697 1.697 0 0 1 .02-.525c.053-.306.171-.655.27-.948l.014-.04a7.76 7.76 0 0 0 .235-.767c.016-.073.023-.126.026-.161A8.016 8.016 0 0 1 1.25 8.978Zm4.628 7.256h-.011.011Z" fill="#4D4D4D"/><path d="M10.392 11.097A5.598 5.598 0 0 1 7.411 8.29l-.156-.33.788-.788a.272.272 0 0 0 0-.385l-1.17-1.17a.275.275 0 0 0-.412.026c-1.05 1.344-.644 3.623.99 5.257 1.634 1.634 3.914 2.039 5.258.989a.275.275 0 0 0 .026-.41l-1.17-1.17a.272.272 0 0 0-.385 0l-.788.787Z" fill="#4D4D4D"/></svg>