<svg width="18" height="18" fill="none" xmlns="http://www.w3.org/2000/svg"><g clip-path="url('#clip0_4_320')" fill="#4D4D4D"><path fill-rule="evenodd" clip-rule="evenodd" d="M9 2.17c-3.774 0-6.83 3.05-6.83 6.808 0 1.575.536 3.024 1.437 4.178.164.21.2.448.206.617.004.174-.023.35-.057.504a8.532 8.532 0 0 1-.286.943 11.28 11.28 0 0 0-.16.496c.183-.065.393-.15.623-.245l.069-.028c.288-.119.604-.25.878-.338.148-.048.308-.092.462-.113.13-.018.372-.039.604.077A6.818 6.818 0 0 0 9 15.786c3.774 0 6.83-3.05 6.83-6.808S12.775 2.17 9 2.17ZM2.884 15.83h.011-.011ZM.914 8.979C.914 4.523 4.536.914 9 .914c4.465 0 8.087 3.609 8.087 8.064S13.465 17.042 9 17.042a8.075 8.075 0 0 1-3.517-.8c-.048.008-.12.027-.216.058a12.163 12.163 0 0 0-.856.333c-.31.127-.656.269-.953.356a2.277 2.277 0 0 1-.476.095c-.139.01-.411.01-.647-.174a.936.936 0 0 1-.345-.62 1.697 1.697 0 0 1 .02-.525c.053-.306.171-.655.27-.948l.014-.04c.103-.302.19-.557.235-.767.016-.073.023-.126.026-.161a8.016 8.016 0 0 1-1.64-4.871Zm4.628 7.256h-.01.01Z"/><path d="M10.056 11.097A5.598 5.598 0 0 1 7.075 8.29l-.156-.33.788-.788a.272.272 0 0 0 0-.385l-1.17-1.17a.275.275 0 0 0-.412.026c-1.05 1.344-.644 3.623.99 5.257 1.634 1.634 3.914 2.039 5.258.989a.275.275 0 0 0 .026-.41l-1.17-1.17a.272.272 0 0 0-.385 0l-.788.787Z"/></g><defs><clipPath id="clip0_4_320"><path fill="#fff" d="M0 0h18v18H0z"/></clipPath></defs></svg>