<svg width="19" height="18" fill="none" xmlns="http://www.w3.org/2000/svg"><path fill-rule="evenodd" clip-rule="evenodd" d="M9.665 2.17c-3.775 0-6.83 3.05-6.83 6.808 0 1.575.535 3.024 1.436 4.178.164.21.2.448.206.617.004.174-.023.35-.056.504-.062.283-.17.602-.265.878l-.022.065a11.28 11.28 0 0 0-.16.496c.183-.065.393-.15.623-.245l.069-.028c.288-.119.604-.25.878-.338.148-.048.309-.092.463-.113.129-.018.371-.039.604.077a6.818 6.818 0 0 0 3.054.717c3.774 0 6.83-3.05 6.83-6.808S13.439 2.17 9.665 2.17ZM3.548 15.83h.011-.011Zm-1.97-6.852C1.578 4.523 5.2.914 9.665.914c4.464 0 8.086 3.609 8.086 8.064s-3.622 8.064-8.086 8.064a8.075 8.075 0 0 1-3.518-.8c-.048.008-.12.027-.216.058a12.163 12.163 0 0 0-.856.333c-.31.127-.655.269-.953.356a2.277 2.277 0 0 1-.476.095c-.139.01-.411.01-.647-.174a.936.936 0 0 1-.345-.62 1.697 1.697 0 0 1 .02-.525c.053-.306.171-.655.27-.948l.014-.04c.103-.302.19-.557.235-.767.016-.073.023-.126.026-.161a8.016 8.016 0 0 1-1.64-4.871Zm4.628 7.256h-.01.01Z" fill="#4D4D4D"/><path d="M10.72 11.097A5.598 5.598 0 0 1 7.74 8.29l-.156-.33.788-.788a.272.272 0 0 0 0-.385L7.2 5.618a.275.275 0 0 0-.412.026c-1.05 1.344-.644 3.623.99 5.257 1.634 1.634 3.914 2.039 5.258.989a.275.275 0 0 0 .026-.41l-1.17-1.17a.272.272 0 0 0-.385 0l-.788.787Z" fill="#4D4D4D"/></svg>