<svg width="17" height="16" fill="none" xmlns="http://www.w3.org/2000/svg"><path fill-rule="evenodd" clip-rule="evenodd" d="M9.55 11.636a.889.889 0 1 1-1.778 0 .889.889 0 0 1 1.778 0ZM7.663 3.895a2.607 2.607 0 1 1 1.531 4.96v.115a.533.533 0 1 1-1.066 0v-.593a.533.533 0 0 1 .533-.533 1.54 1.54 0 1 0-1.54-1.54.533.533 0 0 1-1.067 0 2.607 2.607 0 0 1 1.61-2.409Z" fill="#4D4D4D"/><path fill-rule="evenodd" clip-rule="evenodd" d="M8.66 1.867a6.133 6.133 0 1 0 0 12.267 6.133 6.133 0 0 0 0-12.267Zm-7.2 6.134a7.2 7.2 0 1 1 14.4 0 7.2 7.2 0 0 1-14.4 0Z" fill="#4D4D4D"/></svg>