<svg width="16" height="16" fill="none" xmlns="http://www.w3.org/2000/svg"><path fill-rule="evenodd" clip-rule="evenodd" d="M1.337 3.334a.769.769 0 0 0-.767.771c0 .425.343.771.767.771H14.67a.769.769 0 0 0 .767-.77.769.769 0 0 0-.767-.772H1.337Zm11.111 3.729H3.56a.769.769 0 0 0-.766.771c0 .425.342.771.766.771h8.89a.769.769 0 0 0 .766-.771.769.769 0 0 0-.767-.771Zm-5.926 3.729a.769.769 0 0 0-.767.77c0 .426.343.772.767.772h2.963a.769.769 0 0 0 .767-.771.769.769 0 0 0-.767-.771H6.522Z" fill="#4D4D4D"/></svg>