<svg width="9" height="8" fill="none" xmlns="http://www.w3.org/2000/svg"><g clip-path="url('#clip0_4_495')"><path d="M4.092 6.234 1.27 2.33a.482.482 0 0 1-.09-.275c0-.097.03-.191.088-.275a.62.62 0 0 1 .241-.203.774.774 0 0 1 .331-.076h5.647c.116.001.23.027.33.076a.62.62 0 0 1 .242.203.481.481 0 0 1 .087.275.482.482 0 0 1-.09.275L5.233 6.234a.628.628 0 0 1-.243.195.777.777 0 0 1-.654 0 .628.628 0 0 1-.243-.195Z" fill="#4D4D4D"/></g><defs><clipPath id="clip0_4_495"><path fill="#fff" transform="matrix(1 0 0 -1 .664 8)" d="M0 0h8v8H0z"/></clipPath></defs></svg>