<svg width="21" height="20" viewBox="0 0 21 20" fill="none" xmlns="http://www.w3.org/2000/svg">
<path d="M0.664062 3C0.664062 1.34315 2.00721 0 3.66406 0H17.6641C19.3209 0 20.6641 1.34315 20.6641 3V17C20.6641 18.6569 19.3209 20 17.6641 20H3.66406C2.00721 20 0.664062 18.6569 0.664062 17V3Z" fill="white"></path>
<path fill-rule="evenodd" clip-rule="evenodd" d="M17.6641 1.5H3.66406C2.83564 1.5 2.16406 2.17157 2.16406 3V17C2.16406 17.8284 2.83564 18.5 3.66406 18.5H17.6641C18.4925 18.5 19.1641 17.8284 19.1641 17V3C19.1641 2.17157 18.4925 1.5 17.6641 1.5ZM3.66406 0C2.00721 0 0.664062 1.34315 0.664062 3V17C0.664062 18.6569 2.00721 20 3.66406 20H17.6641C19.3209 20 20.6641 18.6569 20.6641 17V3C20.6641 1.34315 19.3209 0 17.6641 0H3.66406Z" fill="#B3B3B3"></path>
</svg>
