<svg width="21" height="20" viewBox="0 0 21 20" fill="none" xmlns="http://www.w3.org/2000/svg">
<path d="M0.335938 3C0.335938 1.34315 1.67908 0 3.33594 0H17.3359C18.9928 0 20.3359 1.34315 20.3359 3V17C20.3359 18.6569 18.9928 20 17.3359 20H3.33594C1.67908 20 0.335938 18.6569 0.335938 17V3Z" fill="white"></path>
<path fill-rule="evenodd" clip-rule="evenodd" d="M17.3359 1.5H3.33594C2.50751 1.5 1.83594 2.17157 1.83594 3V17C1.83594 17.8284 2.50751 18.5 3.33594 18.5H17.3359C18.1644 18.5 18.8359 17.8284 18.8359 17V3C18.8359 2.17157 18.1644 1.5 17.3359 1.5ZM3.33594 0C1.67908 0 0.335938 1.34315 0.335938 3V17C0.335938 18.6569 1.67908 20 3.33594 20H17.3359C18.9928 20 20.3359 18.6569 20.3359 17V3C20.3359 1.34315 18.9928 0 17.3359 0H3.33594Z" fill="#B3B3B3"></path>
</svg>
