<svg width="20" height="20" viewBox="0 0 20 20" fill="none" xmlns="http://www.w3.org/2000/svg">
<g opacity="0.8">
<path fill-rule="evenodd" clip-rule="evenodd" d="M6.3776 2.94857C6.3776 1.86701 7.25438 0.990234 8.33594 0.990234H11.6693C12.7508 0.990234 13.6276 1.86701 13.6276 2.94857V6.2819C13.6276 7.36346 12.7508 8.24023 11.6693 8.24023H10.6693V10.6152H15.4193C16.4778 10.6152 17.3359 11.4734 17.3359 12.5319V13.1569V14.4836C18.2881 14.7698 18.9818 15.6532 18.9818 16.6986C18.9818 17.9757 17.9464 19.0111 16.6693 19.0111C15.3921 19.0111 14.3568 17.9757 14.3568 16.6986C14.3568 15.6532 15.0504 14.7698 16.0026 14.4836V13.1569V12.5319C16.0026 12.2097 15.7414 11.9486 15.4193 11.9486H10.6693V14.4836C11.6214 14.7698 12.3151 15.6532 12.3151 16.6986C12.3151 17.9757 11.2798 19.0111 10.0026 19.0111C8.72545 19.0111 7.6901 17.9757 7.6901 16.6986C7.6901 15.6532 8.38377 14.7698 9.33594 14.4836V11.9486H4.58594C4.26377 11.9486 4.0026 12.2097 4.0026 12.5319V14.4836C4.95477 14.7698 5.64844 15.6532 5.64844 16.6986C5.64844 17.9757 4.6131 19.0111 3.33594 19.0111C2.05878 19.0111 1.02344 17.9757 1.02344 16.6986C1.02344 15.6532 1.71711 14.7698 2.66927 14.4836V12.5319C2.66927 11.4734 3.52739 10.6152 4.58594 10.6152H9.33594V8.24023H8.33594C7.25438 8.24023 6.3776 7.36346 6.3776 6.2819V2.94857ZM8.33594 2.4069C8.03678 2.4069 7.79427 2.64941 7.79427 2.94857V6.2819C7.79427 6.58105 8.03678 6.82357 8.33594 6.82357H11.6693C11.9684 6.82357 12.2109 6.58105 12.2109 6.2819V2.94857C12.2109 2.64941 11.9684 2.4069 11.6693 2.4069H8.33594ZM3.33594 15.6777C2.77215 15.6777 2.3151 16.1348 2.3151 16.6986C2.3151 17.2624 2.77215 17.7194 3.33594 17.7194C3.89973 17.7194 4.35677 17.2624 4.35677 16.6986C4.35677 16.1348 3.89973 15.6777 3.33594 15.6777ZM8.98177 16.6986C8.98177 16.1348 9.43881 15.6777 10.0026 15.6777C10.5664 15.6777 11.0234 16.1348 11.0234 16.6986C11.0234 17.2624 10.5664 17.7194 10.0026 17.7194C9.43881 17.7194 8.98177 17.2624 8.98177 16.6986ZM16.6693 15.6777C16.1055 15.6777 15.6484 16.1348 15.6484 16.6986C15.6484 17.2624 16.1055 17.7194 16.6693 17.7194C17.2331 17.7194 17.6901 17.2624 17.6901 16.6986C17.6901 16.1348 17.2331 15.6777 16.6693 15.6777Z" fill="white"></path>
</g>
</svg>
