<svg width="19" height="18" viewBox="0 0 19 18" fill="none" xmlns="http://www.w3.org/2000/svg">
<path fill-rule="evenodd" clip-rule="evenodd" d="M9.3364 2.1702C5.56236 2.1702 2.50614 5.21992 2.50614 8.97795C2.50614 10.5533 3.04226 12.0023 3.94323 13.1559C4.10688 13.3654 4.14369 13.6037 4.14844 13.7726C4.15336 13.9471 4.12603 14.1228 4.09244 14.2771C4.03083 14.5599 3.92217 14.8793 3.82824 15.1554C3.82077 15.1774 3.8134 15.1991 3.80615 15.2204C3.74266 15.4075 3.68791 15.5727 3.64681 15.7162C3.82889 15.6514 4.03874 15.5662 4.26893 15.4714C4.2916 15.4621 4.31448 15.4526 4.33754 15.4431C4.62611 15.3242 4.94238 15.1938 5.21596 15.1051C5.36379 15.0572 5.52437 15.0129 5.67842 14.9916C5.80771 14.9737 6.04997 14.9531 6.2824 15.0691C7.20064 15.5274 8.23733 15.7857 9.3364 15.7857C13.1104 15.7857 16.1667 12.736 16.1667 8.97795C16.1667 5.21992 13.1104 2.1702 9.3364 2.1702ZM3.21976 15.8307C3.21976 15.8307 3.22394 15.8302 3.23105 15.8306C3.2231 15.8311 3.21976 15.8307 3.21976 15.8307ZM1.25 8.97795C1.25 4.5226 4.8722 0.914062 9.3364 0.914062C13.8006 0.914062 17.4228 4.5226 17.4228 8.97795C17.4228 13.4333 13.8006 17.0418 9.3364 17.0418C8.07717 17.0418 6.88351 16.7544 5.81937 16.2411C5.77045 16.2505 5.69948 16.2688 5.60332 16.3C5.37832 16.373 5.10566 16.4853 4.8005 16.611C4.78283 16.6183 4.76506 16.6256 4.74719 16.6329C4.43768 16.7604 4.09143 16.9019 3.79434 16.9894C3.64674 17.0329 3.48008 17.0727 3.31763 17.0838C3.17926 17.0932 2.90651 17.0931 2.67055 16.9099C2.43807 16.7294 2.353 16.4807 2.32594 16.2894C2.29967 16.1036 2.31883 15.9183 2.34568 15.7651C2.39924 15.4595 2.51701 15.1103 2.61664 14.8167L2.63029 14.7765C2.73274 14.4748 2.81931 14.2198 2.86508 14.0097C2.8809 13.9371 2.88835 13.8845 2.89129 13.8487C1.86156 12.4957 1.25 10.8073 1.25 8.97795ZM5.8781 16.2336C5.8781 16.2336 5.87404 16.2341 5.86704 16.2339C5.87479 16.2333 5.8781 16.2336 5.8781 16.2336Z" fill="#4D4D4D"></path>
<path d="M10.392 11.0969C9.07949 10.5714 8.01453 9.56894 7.4108 8.29079L7.25476 7.96071L8.04277 7.17293C8.1491 7.06664 8.1491 6.89451 8.04277 6.78821L6.87227 5.61805C6.75566 5.50148 6.56279 5.51449 6.46128 5.64434C5.41129 6.98792 5.81655 9.26696 7.45088 10.9008C9.08509 12.5347 11.3649 12.9397 12.7089 11.89C12.8388 11.7887 12.8517 11.5957 12.7352 11.4793L11.5647 10.3091C11.4584 10.2028 11.2861 10.2028 11.1797 10.3091L10.392 11.0969Z" fill="#4D4D4D"></path>
</svg>
