<svg width="20" height="20" viewBox="0 0 20 20" fill="none" xmlns="http://www.w3.org/2000/svg">
<path fill-rule="evenodd" clip-rule="evenodd" d="M10.0041 8.34865C9.10538 8.34865 8.38139 9.07264 8.38139 9.97139C8.38139 10.8701 9.10538 11.5941 10.0041 11.5941C10.9029 11.5941 11.6269 10.8701 11.6269 9.97139C11.6269 9.07264 10.9029 8.34865 10.0041 8.34865ZM7.04991 9.97139C7.04991 8.34033 8.37306 7.01717 10.0041 7.01717C11.6352 7.01717 12.9583 8.34033 12.9583 9.97139C12.9583 11.6025 11.6352 12.9256 10.0041 12.9256C8.37306 12.9256 7.04991 11.6025 7.04991 9.97139Z" fill="#808080"></path>
<path d="M10.0624 18.9589C9.47986 18.9589 8.93062 18.7342 8.52286 18.3181C8.11509 17.9103 7.88208 17.3528 7.88208 16.7786C7.88208 16.6121 7.84047 16.4956 7.7739 16.4041C7.70732 16.3042 7.60746 16.2377 7.49928 16.1961C7.34949 16.1295 7.23299 16.1212 7.1248 16.1378C7.0083 16.1544 6.90844 16.2127 6.8169 16.2959C6.57557 16.5372 6.33424 16.6954 6.06794 16.8119C5.53535 17.0366 4.92786 17.0366 4.39527 16.8119C4.12898 16.7037 3.88764 16.5456 3.68792 16.3375C3.4882 16.1378 3.33009 15.8965 3.21358 15.6302C3.1054 15.3639 3.04715 15.0809 3.04715 14.798C3.04715 14.5151 3.1054 14.2321 3.21358 13.9658C3.32177 13.6995 3.47988 13.4582 3.68792 13.2585C3.81275 13.1337 3.86268 13.0255 3.88765 12.9173C3.90429 12.8008 3.88764 12.6843 3.84604 12.5761C3.79611 12.4679 3.72121 12.3764 3.62967 12.3181C3.52981 12.2515 3.42163 12.2183 3.30512 12.2183H3.1803C2.59777 12.2183 2.04854 11.9936 1.64077 11.5775C1.23301 11.1697 1 10.6205 1 10.038C1 9.45544 1.22469 8.90621 1.64077 8.49844C2.04854 8.09068 2.59777 7.85767 3.1803 7.85767C3.34673 7.85767 3.46324 7.81606 3.55478 7.74949C3.64631 7.68291 3.72121 7.58305 3.76282 7.47487C3.82107 7.3334 3.83771 7.20857 3.82107 7.10039C3.79611 6.98389 3.74618 6.88402 3.66296 6.80081C3.42163 6.55948 3.26351 6.31815 3.14701 6.05185C3.03883 5.78555 2.98057 5.50262 2.98057 5.21968C2.98057 4.93674 3.03883 4.6538 3.14701 4.3875C3.25519 4.12121 3.41331 3.87988 3.62135 3.68015C3.82939 3.48043 4.0624 3.32232 4.3287 3.20581C4.86129 2.98113 5.46878 2.98113 6.00137 3.20581C6.26766 3.314 6.50899 3.48043 6.70872 3.68015C6.83354 3.80498 6.9334 3.85491 7.04991 3.87988C7.16641 3.89652 7.28292 3.87988 7.3911 3.83827C7.44103 3.82162 7.49096 3.80498 7.54089 3.79666C7.60746 3.75505 7.66572 3.6968 7.71565 3.6219C7.78222 3.53036 7.81551 3.41386 7.81551 3.30568V3.18085C7.81551 2.59833 8.04019 2.04909 8.45628 1.64133C9.28013 0.817474 10.7198 0.817474 11.5353 1.64133C11.9431 2.04909 12.1761 2.59833 12.1761 3.18085C12.1761 3.36393 12.2094 3.47211 12.276 3.56365C12.3425 3.65519 12.4258 3.73008 12.5339 3.78001C12.6504 3.82995 12.7669 3.84659 12.8834 3.82162C13 3.79666 13.0998 3.74673 13.183 3.66351C13.4244 3.42218 13.6657 3.26407 13.932 3.14756C14.4646 2.92288 15.0721 2.92288 15.6047 3.14756C15.871 3.25575 16.1123 3.41386 16.312 3.6219C16.5201 3.82995 16.6782 4.06295 16.7863 4.32925C16.8945 4.59555 16.9528 4.87016 16.9528 5.16142C16.9528 5.45269 16.8945 5.7273 16.7863 5.9936C16.6782 6.25989 16.5201 6.4929 16.312 6.70095C16.1955 6.82577 16.1373 6.92563 16.1123 7.04214C16.0873 7.15864 16.1123 7.27515 16.1539 7.38333C16.1789 7.43326 16.1872 7.48319 16.2038 7.53312C16.2454 7.59969 16.3037 7.65795 16.3786 7.70788C16.4701 7.77445 16.5866 7.80774 16.6948 7.80774H16.8196C17.3938 7.80774 17.9514 8.04075 18.3592 8.44851C18.7669 8.85628 18.9999 9.40551 18.9999 9.98804C18.9999 10.5706 18.7752 11.1198 18.3592 11.5276C17.9514 11.9353 17.3938 12.1683 16.8196 12.1683C16.6366 12.1683 16.5284 12.2016 16.4368 12.2682C16.3453 12.3264 16.2704 12.418 16.2288 12.5262C16.1789 12.6343 16.1705 12.7509 16.1872 12.8674C16.2121 12.9839 16.2621 13.0837 16.3453 13.1669C16.5866 13.4083 16.7447 13.6496 16.8612 13.9159C16.9694 14.1822 17.0277 14.4651 17.0277 14.7481C17.0277 15.031 16.9694 15.314 16.8612 15.5802C16.7531 15.8465 16.5949 16.0796 16.3869 16.2876C16.1789 16.4956 15.9458 16.6538 15.6796 16.7619C15.1553 16.9783 14.5395 16.9783 14.0069 16.7619C13.7406 16.6538 13.5076 16.4956 13.2995 16.2876C13.1747 16.1628 13.0665 16.1128 12.9583 16.0879C12.8502 16.0629 12.7253 16.0879 12.6172 16.1295C12.509 16.1794 12.4174 16.2543 12.3592 16.3458C12.2926 16.4457 12.2593 16.5539 12.2593 16.6704V16.7952C12.2593 17.3694 12.0263 17.927 11.6185 18.3347C11.2108 18.7425 10.6532 18.9755 10.079 18.9755L10.0624 18.9589ZM7.23299 14.798C7.49928 14.798 7.75726 14.8563 8.00691 14.9644C8.33146 15.0809 8.63936 15.314 8.86405 15.6302C9.08873 15.9464 9.21356 16.3126 9.22188 16.6954V16.7786C9.22188 17.0033 9.31342 17.2196 9.47153 17.3777C9.78776 17.694 10.3536 17.694 10.6699 17.3777C10.828 17.2196 10.9195 17.0033 10.9195 16.7786V16.6538C10.9195 16.271 11.036 15.9131 11.2357 15.6052C11.4438 15.2973 11.735 15.0477 12.0762 14.9062C12.4258 14.7564 12.8086 14.7065 13.183 14.773C13.5658 14.8396 13.907 15.0227 14.1816 15.289C14.3065 15.4138 14.4063 15.4804 14.5062 15.522C14.7142 15.6052 14.9556 15.6052 15.1553 15.522C15.2551 15.4804 15.355 15.4138 15.4299 15.3389C15.5048 15.2557 15.5714 15.1642 15.613 15.0643C15.6546 14.9644 15.6796 14.8563 15.6796 14.7398C15.6796 14.6232 15.6546 14.5151 15.613 14.4152C15.5714 14.3153 15.5048 14.2155 15.4299 14.1406C15.1137 13.816 14.9306 13.4748 14.864 13.092C14.7974 12.7176 14.8391 12.3348 14.9972 11.9853C15.147 11.6441 15.3883 11.3528 15.6962 11.1448C16.0124 10.9367 16.3703 10.8285 16.7447 10.8285C17.036 10.8285 17.2607 10.737 17.4188 10.5789C17.5769 10.4208 17.6685 10.2044 17.6685 9.97971C17.6685 9.75503 17.5769 9.53866 17.4188 9.38055C17.2607 9.22243 17.0443 9.1309 16.8196 9.1309H16.6948C16.3203 9.1309 15.9542 9.02271 15.6463 8.81467C15.33 8.60663 15.0887 8.31536 14.9472 7.97417C14.9223 7.91592 14.9056 7.84935 14.8973 7.79109C14.7891 7.47487 14.7558 7.142 14.8141 6.80913C14.8807 6.43465 15.0637 6.08514 15.33 5.81052C15.4632 5.67737 15.5214 5.58583 15.5631 5.48597C15.6047 5.37779 15.6296 5.26961 15.6296 5.16142C15.6296 5.05324 15.6047 4.93674 15.5631 4.83688C15.5214 4.73702 15.4549 4.63715 15.38 4.56226C15.2968 4.47904 15.2052 4.42079 15.1054 4.37918C14.8973 4.29596 14.6643 4.29596 14.4563 4.37918C14.3564 4.42079 14.2649 4.48736 14.1816 4.56226C13.8571 4.87848 13.5159 5.06156 13.1331 5.12814C12.7503 5.19471 12.3675 5.1531 12.018 4.99499C11.6768 4.85352 11.3939 4.60387 11.1858 4.29596C10.9778 3.97974 10.8696 3.6219 10.8696 3.24742C10.8696 2.94784 10.778 2.7398 10.6199 2.58168C10.2954 2.25714 9.73783 2.25714 9.4216 2.58168C9.26349 2.7398 9.17195 2.95616 9.17195 3.18085V3.30568C9.17195 3.68015 9.06377 4.04631 8.85573 4.35422C8.64768 4.66212 8.35642 4.91177 8.01523 5.05324C7.95698 5.07821 7.8904 5.09485 7.83215 5.10317C7.51592 5.21135 7.18306 5.24464 6.85019 5.18639C6.47571 5.11982 6.12619 4.93674 5.85158 4.67044C5.71843 4.53729 5.62689 4.47904 5.52703 4.43743C5.31898 4.35422 5.08598 4.35422 4.87793 4.43743C4.77807 4.47904 4.67821 4.54562 4.60332 4.62051C4.5201 4.69541 4.46185 4.79527 4.42024 4.89513C4.37863 4.99499 4.35366 5.10317 4.35366 5.21968C4.35366 5.33618 4.37863 5.44436 4.42024 5.54422C4.46185 5.64409 4.52842 5.73562 4.60332 5.81884C4.91954 6.14339 5.10262 6.4929 5.16919 6.86738C5.23577 7.24186 5.19416 7.63298 5.03605 7.98249C4.91954 8.30704 4.67821 8.61495 4.37031 8.83963C4.05408 9.06432 3.68792 9.18915 3.30512 9.19747C2.99722 9.19747 2.78085 9.28901 2.62274 9.44712C2.46463 9.60523 2.37309 9.8216 2.37309 10.0463C2.37309 10.271 2.46463 10.4873 2.62274 10.6455C2.78085 10.8036 2.99722 10.8951 3.22191 10.8951H3.34673C3.72953 10.8951 4.08737 11.0116 4.40359 11.2113C4.7115 11.4194 4.95283 11.7106 5.10262 12.0518C5.25241 12.393 5.30234 12.7841 5.23577 13.1586C5.16919 13.5414 4.98612 13.8826 4.71982 14.1572C4.58667 14.2904 4.52842 14.3819 4.48681 14.4818C4.4452 14.5816 4.42024 14.6898 4.42024 14.8063C4.42024 14.9228 4.4452 15.031 4.48681 15.1309C4.52842 15.2307 4.59499 15.3223 4.66989 15.4055C4.74478 15.4804 4.84465 15.547 4.94451 15.5886C5.15255 15.6718 5.38556 15.6718 5.5936 15.5886C5.69346 15.547 5.79332 15.4804 5.86822 15.4055C6.19277 15.0809 6.54228 14.9062 6.91676 14.8396C7.03326 14.8146 7.14145 14.8063 7.25795 14.8063L7.23299 14.798Z" fill="#808080"></path>
</svg>
