<svg width="16" height="16" viewBox="0 0 16 16" fill="none" xmlns="http://www.w3.org/2000/svg">
<path fill-rule="evenodd" clip-rule="evenodd" d="M1.33698 3.33398C0.912925 3.33398 0.570312 3.6799 0.570313 4.10517C0.570313 4.53045 0.912925 4.87636 1.33698 4.87636L14.6703 4.87636C15.0944 4.87636 15.437 4.53045 15.437 4.10517C15.437 3.67989 15.0944 3.33398 14.6703 3.33398L1.33698 3.33398ZM12.4481 7.0628L3.5592 7.0628C3.13515 7.0628 2.79254 7.40871 2.79254 7.83399C2.79254 8.25927 3.13515 8.60518 3.5592 8.60518L12.4481 8.60518C12.8722 8.60518 13.2148 8.25927 13.2148 7.83399C13.2148 7.40871 12.8722 7.0628 12.4481 7.0628ZM6.52217 10.7916C6.09811 10.7916 5.7555 11.1375 5.7555 11.5628C5.7555 11.9881 6.09811 12.334 6.52217 12.334L9.48513 12.334C9.90919 12.334 10.2518 11.9881 10.2518 11.5628C10.2518 11.1375 9.90919 10.7916 9.48513 10.7916H6.52217Z" fill="#4D4D4D"></path>
</svg>
