<svg width="9" height="8" viewBox="0 0 9 8" fill="none" xmlns="http://www.w3.org/2000/svg">
<g clip-path="url('#clip0_4_495')">
<path d="M4.09236 6.23409L1.26903 2.3286C1.21082 2.24507 1.18002 2.15037 1.17969 2.05392C1.17936 1.95746 1.20952 1.86262 1.26717 1.77882C1.32481 1.69502 1.40794 1.62519 1.50826 1.57627C1.60859 1.52736 1.72263 1.50106 1.83903 1.5H7.48569C7.60209 1.50106 7.71613 1.52736 7.81646 1.57627C7.91678 1.62519 7.99991 1.69502 8.05755 1.77882C8.1152 1.86262 8.14536 1.95746 8.14503 2.05392C8.1447 2.15037 8.1139 2.24507 8.05569 2.3286L5.23236 6.23409C5.17294 6.31526 5.08927 6.38238 4.98943 6.42895C4.88958 6.47553 4.77694 6.5 4.66236 6.5C4.54778 6.5 4.43514 6.47553 4.3353 6.42895C4.23545 6.38238 4.15178 6.31526 4.09236 6.23409V6.23409Z" fill="#4D4D4D"></path>
</g>
<defs>
<clipPath id="clip0_4_495">
<rect width="8" height="8" fill="white" transform="matrix(1 0 0 -1 0.664062 8)"></rect>
</clipPath>
</defs>
</svg>
