<svg width="9" height="8" viewBox="0 0 9 8" fill="none" xmlns="http://www.w3.org/2000/svg">
<g clip-path="url('#clip0_4_515')">
<path d="M3.76424 6.23409L0.940902 2.3286C0.882691 2.24507 0.851891 2.15037 0.851565 2.05392C0.851239 1.95746 0.881399 1.86262 0.939044 1.77882C0.99669 1.69502 1.07981 1.62519 1.18014 1.57627C1.28047 1.52736 1.3945 1.50106 1.5109 1.5H7.15757C7.27397 1.50106 7.388 1.52736 7.48833 1.57627C7.58866 1.62519 7.67178 1.69502 7.72943 1.77882C7.78707 1.86262 7.81723 1.95746 7.81691 2.05392C7.81658 2.15037 7.78578 2.24507 7.72757 2.3286L4.90424 6.23409C4.84481 6.31526 4.76114 6.38238 4.6613 6.42895C4.56146 6.47553 4.44881 6.5 4.33424 6.5C4.21966 6.5 4.10701 6.47553 4.00717 6.42895C3.90733 6.38238 3.82366 6.31526 3.76424 6.23409V6.23409Z" fill="#4D4D4D"></path>
</g>
<defs>
<clipPath id="clip0_4_515">
<rect width="8" height="8" fill="white" transform="matrix(1 0 0 -1 0.335938 8)"></rect>
</clipPath>
</defs>
</svg>
