<svg width="9" height="8" viewBox="0 0 9 8" fill="none" xmlns="http://www.w3.org/2000/svg">
<g clip-path="url('#clip0_4_404')">
<path d="M3.75642 6.23409L0.93309 2.3286C0.874879 2.24507 0.844079 2.15037 0.843753 2.05392C0.843427 1.95746 0.873587 1.86262 0.931232 1.77882C0.988877 1.69502 1.072 1.62519 1.17233 1.57627C1.27265 1.52736 1.38669 1.50106 1.50309 1.5H7.14976C7.26616 1.50106 7.38019 1.52736 7.48052 1.57627C7.58085 1.62519 7.66397 1.69502 7.72161 1.77882C7.77926 1.86262 7.80942 1.95746 7.80909 2.05392C7.80877 2.15037 7.77797 2.24507 7.71976 2.3286L4.89642 6.23409C4.837 6.31526 4.75333 6.38238 4.65349 6.42895C4.55365 6.47553 4.441 6.5 4.32642 6.5C4.21184 6.5 4.0992 6.47553 3.99936 6.42895C3.89952 6.38238 3.81585 6.31526 3.75642 6.23409V6.23409Z" fill="#4D4D4D"></path>
</g>
<defs>
<clipPath id="clip0_4_404">
<rect width="8" height="8" fill="white" transform="matrix(1 0 0 -1 0.328125 8)"></rect>
</clipPath>
</defs>
</svg>
